<svg width="181" height="40" viewBox="0 0 181 40" fill="none" xmlns="http://www.w3.org/2000/svg">
<g clip-path="url(#clip0_234_487)">
<path d="M69.0247 19.8967C69.0247 13.7491 69.0453 7.60494 69.0041 1.45734C68.9973 0.40337 69.2336 -0.00669541 70.405 8.25363e-05C80.5571 0.0610841 90.7058 0.0305833 100.858 0.0949738C103.074 0.10853 105.317 0.311868 107.325 1.37939C111.198 3.4365 112.805 6.93392 112.877 11.0278C113.034 20.2729 112.955 29.5214 113 38.7699C113.003 39.6172 112.767 39.9832 111.846 39.9696C108.938 39.929 106.026 39.9052 103.122 39.9764C101.875 40.0069 101.937 39.3054 101.937 38.4649C101.947 30.4568 101.947 22.4486 101.94 14.4439C101.937 10.489 101.005 9.56715 97.0115 9.56376C92.6787 9.56038 88.3424 9.5536 84.0096 9.56715C81.3346 9.57393 80.0707 10.838 80.0673 13.5255C80.0605 21.7573 80.0296 29.9925 80.0981 38.2243C80.1084 39.6443 79.694 40.051 78.2828 39.99C75.7791 39.8781 73.2616 39.868 70.7578 39.9934C69.261 40.0679 68.9836 39.5189 69.0007 38.1701C69.0658 32.0767 69.0247 25.9867 69.0247 19.8967Z" fill="#CFCFDE"/>
<path d="M64.9653 19.9865C64.9653 26.068 64.9344 32.1495 64.9894 38.2309C65.0031 39.5456 64.6492 40.0134 63.254 39.9997C56.5565 39.9314 49.8591 40.0031 43.165 39.9485C38.0689 39.9075 34.1136 36.2607 33.3335 31.2412C32.8112 27.8948 33.0793 24.5553 33.0449 21.2124C32.9796 14.7348 33.0552 8.25383 33.0002 1.77285C32.9899 0.458214 33.337 -0.0505668 34.7322 0.00748206C37.2476 0.109921 39.7699 0.0996772 42.2853 0.0108967C43.6324 -0.0369082 44.0585 0.386507 44.0482 1.74553C43.9897 9.93042 44.0172 18.1153 44.0241 26.3002C44.0241 27.847 43.9519 29.4587 45.7526 30.2065C48.134 31.1934 51.7869 30.8724 52.9277 29.527C53.859 28.4275 53.9655 27.0377 53.969 25.6651C53.9793 17.7636 54.0068 9.86212 53.9449 1.96407C53.9346 0.512848 54.2714 -0.0744692 55.8418 0.00748206C58.2953 0.133824 60.7661 0.103092 63.2231 0.0143113C64.5564 -0.0334936 65.0134 0.362604 64.9997 1.7387C64.9275 7.82359 64.9653 13.9051 64.9653 19.9865Z" fill="#CFCFDE"/>
<path d="M150.027 19.9418C150.027 13.9184 150.061 7.8951 150 1.87177C149.987 0.509345 150.313 -0.0199167 151.763 0.000570812C157.701 0.0791064 163.638 -0.0369897 169.576 0.0552042C176.741 0.167886 181.064 4.61368 180.99 11.6443C180.896 20.4505 180.933 29.2602 181 38.0664C181.01 39.562 180.613 40.0708 179.113 39.9922C176.822 39.8727 174.517 39.8932 172.226 39.9854C170.894 40.04 170.494 39.5893 170.504 38.2406C170.558 30.4007 170.531 22.5573 170.528 14.714C170.528 14.1472 170.551 13.5701 170.46 13.0136C170.003 10.2375 169.229 9.68435 166.417 9.56142C161.687 9.35313 160.658 10.2273 160.755 15.2809C160.903 22.892 160.765 30.5099 160.819 38.1245C160.829 39.4971 160.493 40.0537 159.05 39.9888C156.644 39.8796 154.229 39.8898 151.827 39.9854C150.455 40.04 149.984 39.62 150 38.1757C150.068 32.1011 150.027 26.0197 150.027 19.9418Z" fill="#CFCFDE"/>
<path d="M23.1819 19.8337C28.5419 22.2879 29.6711 27.4146 28.6711 31.712C27.5148 36.6749 23.4573 39.9244 18.4102 39.9551C12.8597 39.9893 7.30577 39.9312 1.75527 39.9995C0.405051 40.0166 -0.0438874 39.6001 0.0241336 38.2519C0.122764 36.2688 0.105759 34.272 0.0309357 32.2888C-0.013278 31.101 0.398249 30.6982 1.58861 30.7187C5.04408 30.7802 8.49954 30.7187 11.955 30.7529C12.9379 30.7631 13.8766 30.5754 14.7881 30.2989C16.0703 29.9098 16.7437 28.9541 16.6893 27.6024C16.6382 26.2917 16.0023 25.3667 14.6996 24.9537C13.1488 24.4621 11.5571 24.6465 9.979 24.6328C7.19694 24.6089 4.41829 24.568 1.64643 24.6499C0.350634 24.6874 -0.0268821 24.2096 0.0241336 22.9705C0.105759 20.9294 0.132967 18.8746 0.0173315 16.8368C-0.0676947 15.352 0.534291 15.0312 1.88451 15.0517C5.96236 15.1233 10.0436 15.096 14.1215 15.0619C15.9002 15.0483 16.9511 14.1267 17.0532 12.6521C17.196 10.5529 16.39 9.64841 14.1657 9.62452C10.1422 9.58014 6.11881 9.53236 2.09877 9.645C0.456066 9.69278 -0.0983041 9.21151 0.0139304 7.55264C0.153373 5.5149 0.0887534 3.46351 0.0309357 1.41894C0.00372728 0.371054 0.411853 0.0365505 1.42536 0.0433771C7.03369 0.0775102 12.6488 -0.113635 18.2503 0.111643C27.4468 0.48028 30.0214 8.65514 27.8345 14.8025C27.0352 17.045 25.2123 18.4274 23.1819 19.8337Z" fill="#CFCFDE"/>
<path d="M131.5 15.0238C135.488 15.0238 139.475 15.0604 143.462 15.0005C144.653 14.9838 145.034 15.3934 144.997 16.5387C144.926 18.6397 144.92 20.7506 144.997 22.8516C145.041 24.0402 144.576 24.3732 143.429 24.3566C139.779 24.3033 136.129 24.3299 132.479 24.3399C130.394 24.3432 128.96 25.4287 128.876 27.0402C128.795 28.6484 130.37 29.9602 132.495 29.9735C136.145 29.9968 139.795 30.0168 143.445 29.9602C144.619 29.9402 145.038 30.3231 144.997 31.4885C144.923 33.5362 144.943 35.5872 144.99 37.6349C145.014 38.6304 144.656 39.0033 143.628 39C135.542 38.9733 127.456 38.9733 119.37 39C118.341 39.0033 118 38.6304 118.007 37.6349C118.034 30.5462 118.041 23.4542 118 16.3656C117.993 15.1936 118.536 15.0005 119.542 15.0105C123.529 15.0438 127.516 15.0238 131.5 15.0238Z" fill="#CFCFDE"/>
<path d="M131.467 9.97433C127.542 9.97433 123.614 9.93518 119.69 9.99923C118.5 10.017 117.947 9.73235 118.004 8.33388C118.098 6.09207 118.068 3.83958 118.014 1.59064C117.987 0.487526 118.274 -0.00353924 119.423 1.91947e-05C127.499 0.039162 135.577 0.0356036 143.652 0.00357764C144.707 1.91967e-05 145.007 0.451941 144.987 1.48745C144.943 3.79332 144.916 6.10274 144.997 8.40861C145.041 9.70033 144.539 10.0099 143.413 9.99568C139.431 9.9423 135.449 9.97433 131.467 9.97433Z" fill="#CFCFDE"/>
<path d="M95.9772 32.9282C95.9772 34.8302 95.9307 36.7322 95.9972 38.6308C96.0304 39.6154 95.781 40.0287 94.7201 39.9985C92.2293 39.9279 89.735 39.9447 87.2442 39.9917C86.3196 40.0085 85.9871 39.7229 86.0004 38.7518C86.0469 34.8369 85.9771 30.922 86.037 27.0105C86.0802 24.2012 88.3649 21.9767 91.0287 22.0002C93.7391 22.0237 95.924 24.2382 95.9739 27.0576C96.0038 29.0133 95.9772 30.9724 95.9772 32.9282Z" fill="#CFCFDE"/>
<path d="M91.0735 12.0006C93.1918 12.0379 95.0234 13.9199 94.9998 16.0359C94.9762 18.1756 93.1378 20 91.006 20C88.7899 20 86.9279 18.0841 87.0021 15.8833C87.073 13.7503 88.9484 11.9633 91.0735 12.0006Z" fill="#CFCFDE"/>
</g>
<defs>
<clipPath id="clip0_234_487">
<rect width="181" height="40" fill="white"/>
</clipPath>
</defs>
</svg>
