<svg width="162" height="44" viewBox="0 0 162 44" fill="none" xmlns="http://www.w3.org/2000/svg">
<path d="M131.374 19.8343C127.537 19.8343 124.011 19.7839 120.491 19.8551C118.833 19.8877 117.619 20.8508 116.717 22.1962C115.486 24.0335 115.094 26.102 115.085 28.2534C115.064 32.989 115.035 37.7275 115.109 42.4631C115.127 43.6721 114.742 43.9774 113.6 43.9092C112.061 43.8173 110.514 43.8499 108.972 43.9003C108.126 43.927 107.72 43.7581 107.726 42.7831C107.758 33.9995 107.749 25.2189 107.735 16.4353C107.735 15.7092 107.902 15.3507 108.727 15.3744C110.517 15.4218 112.312 15.4218 114.102 15.3744C114.918 15.3536 115.106 15.6796 115.091 16.4205C115.05 18.3941 115.076 20.3648 115.256 22.4066C115.572 21.6272 115.877 20.8449 116.206 20.0744C117.688 16.5805 120.21 14.7461 124.169 14.8024C131.933 14.915 139.699 14.8795 147.465 14.9239C149.114 14.9328 150.725 15.2706 152.306 15.7241C159.672 17.837 162.107 23.6749 161.996 30.0848C161.979 31.1813 161.285 30.9324 160.691 30.9324C154.32 30.9413 147.946 30.9383 141.575 30.9383C139.983 30.9383 138.387 30.9679 136.797 30.9264C136.02 30.9057 135.757 31.0716 135.925 31.9192C136.433 34.4766 137.807 36.3999 140.186 37.4549C144.205 39.2359 148.218 39.0285 152.118 37.0163C153.005 36.5569 153.973 35.985 154.296 35.0634C154.819 33.5757 155.862 33.5817 157.093 33.635C158.384 33.6913 159.684 33.6972 160.974 33.632C161.934 33.5817 162.056 33.9669 161.853 34.767C161.291 36.9629 160.051 38.7054 158.261 40.0627C154.493 42.9254 150.107 43.8707 145.493 43.8648C141.408 43.8588 137.473 43.0913 133.982 40.7976C127.343 36.4354 125.765 27.3555 130.531 21.0108C130.758 20.7026 130.979 20.3826 131.374 19.8343ZM145.077 26.7925C147.862 26.7925 150.644 26.7687 153.429 26.8073C154.287 26.8191 154.541 26.6621 154.29 25.7345C153.683 23.4823 152.369 21.8821 150.247 20.9219C148 19.9054 145.612 19.778 143.231 20.0744C139.908 20.4892 137.305 21.965 136.182 25.3582C135.85 26.3628 135.823 26.8725 137.177 26.8221C139.806 26.7243 142.442 26.7925 145.077 26.7925Z" fill="#CFCFDE"/>
<path d="M90.2867 30.9383C86.3065 30.9383 82.3233 30.9679 78.343 30.9175C77.3181 30.9057 77.103 31.1457 77.342 32.1592C77.9546 34.7641 79.4517 36.631 81.9109 37.6208C85.7059 39.1499 89.4919 38.9721 93.1763 37.1822C94.261 36.6547 95.3188 35.9702 95.8028 34.8619C96.2541 33.8247 96.8577 33.5461 97.9364 33.6172C99.4723 33.718 101.02 33.6646 102.562 33.635C103.255 33.6202 103.408 33.8602 103.267 34.5122C102.762 36.8414 101.492 38.6758 99.6038 40.0864C95.6893 43.0083 91.1592 43.9329 86.3812 43.8559C83.2287 43.8055 80.1449 43.2691 77.2733 41.8704C71.9424 39.2685 69.1395 35.0545 69.2292 29.1276C69.3218 23.0704 72.3428 18.8031 77.8948 16.4827C83.5365 14.1208 89.3873 14.1653 95.0917 16.2367C101.812 18.6756 103.453 24.6321 103.39 30.2419C103.381 31.1605 102.723 30.9294 102.23 30.9294C98.2501 30.9413 94.2669 30.9353 90.2867 30.9383ZM95.8178 26.7925C95.504 24.1846 94.3357 22.2495 92.0706 21.1708C88.5237 19.4817 84.8632 19.4817 81.2684 21.0375C79.4666 21.8169 78.2713 23.2571 77.6378 25.127C77.103 26.7065 77.1538 26.7895 78.7793 26.7925C82.1051 26.7954 85.431 26.7925 88.7568 26.7925C91.0845 26.7925 93.4123 26.7925 95.8178 26.7925Z" fill="#CFCFDE"/>
<path d="M46.0052 22.2703C46.1547 21.9235 46.31 21.5768 46.4565 21.2271C48.5721 16.1923 53.1679 13.863 58.5704 15.0899C62.3534 15.9493 64.723 18.8001 64.8037 23.0704C64.9262 29.6759 64.8366 36.2843 64.8695 42.8928C64.8725 43.6751 64.6095 43.924 63.8386 43.9003C62.2967 43.8559 60.7518 43.8233 59.2129 43.9092C58.164 43.9685 58.0027 43.5269 58.0087 42.6172C58.0445 36.9955 58.0236 31.3739 58.0296 25.7523C58.0296 24.7625 57.9997 23.7786 57.68 22.8304C57.3722 21.9147 56.8403 21.1679 55.9857 20.6582C52.6389 18.6638 47.8818 20.2699 46.5073 23.8764C45.9724 25.2752 45.805 26.745 45.805 28.2327C45.805 33.0157 45.7752 37.7986 45.826 42.5816C45.8379 43.6099 45.5481 43.9655 44.4962 43.9062C43.0081 43.8233 41.5081 43.8173 40.02 43.9062C38.8725 43.9774 38.502 43.6544 38.511 42.4542C38.5677 34.8115 38.5408 27.1658 38.5408 19.5232C38.5408 15.0365 38.5946 10.5469 38.508 6.06031C38.4841 4.78604 38.8755 4.46599 40.0887 4.55489C41.523 4.66157 42.9782 4.64972 44.4126 4.55785C45.4973 4.4897 45.8499 4.77122 45.8349 5.9151C45.7692 11.3382 45.805 16.7642 45.805 22.1873C45.8708 22.2199 45.9365 22.2436 46.0052 22.2703Z" fill="#CFCFDE"/>
<path d="M17.5491 14.835C20.9018 14.8706 24.2096 15.1788 27.3472 16.4619C30.7925 17.8725 33.0247 20.3322 33.957 23.9476C34.1751 24.7892 34.0556 25.1211 33.1173 25.05C32.2747 24.9877 31.423 24.9907 30.5804 25.047C28.6291 25.1715 26.7556 25.2337 25.8173 22.9904C25.6469 22.5873 25.127 22.2732 24.7027 22.0391C20.6298 19.7899 16.3717 19.5143 12.0748 21.2123C9.77387 22.1221 8.66228 24.1372 8.15728 26.4724C7.75687 28.3275 7.75089 30.1915 8.13636 32.0555C8.74894 35.013 10.4462 37.0341 13.4045 37.8994C16.7811 38.8892 20.086 38.6817 23.2863 37.1941C24.5294 36.6162 25.7067 35.8309 26.2745 34.6159C26.9498 33.1727 27.9658 32.9505 29.3612 33.066C30.5475 33.1668 31.7517 33.152 32.941 33.069C33.9988 32.9949 34.2259 33.3831 34.0227 34.3403C33.3146 37.6505 31.4679 40.1842 28.405 41.5681C22.0223 44.4545 15.3946 44.8486 8.82663 42.3356C2.66207 39.9767 -0.397804 34.7107 0.0414544 28.0163C0.432903 22.0569 4.62827 17.2621 10.8974 15.5729C13.0788 14.9862 15.302 14.8232 17.5491 14.835Z" fill="#CFCFDE"/>
<path d="M90.2867 7.23087C90.2658 8.87261 89.211 10.4106 87.6302 10.9915C85.9509 11.6108 84.3821 11.353 83.0733 10.1143C81.7824 8.89039 81.2774 7.40867 81.9707 5.68692C82.7715 3.69253 84.1072 2.03005 85.4519 0.382384C85.7238 0.047517 86.0883 -0.204374 86.4409 0.234213C88.0157 2.19304 89.7219 4.08371 90.2807 6.64114C90.3226 6.82784 90.2867 7.03232 90.2867 7.23087Z" fill="#CFCFDE"/>
</svg>
