<svg width="25" height="25" viewBox="0 0 25 25" fill="none" xmlns="http://www.w3.org/2000/svg">
<path d="M13.5794 2.00129C14.3456 1.99835 15.1118 2.00605 15.8777 2.02439L16.0814 2.03174C16.3166 2.04014 16.5487 2.05064 16.829 2.06324C17.9461 2.11574 18.7084 2.29213 19.3772 2.55147C20.0702 2.81816 20.654 3.17935 21.2377 3.76313C21.7715 4.2877 22.1846 4.92224 22.4483 5.62262C22.7076 6.29145 22.884 7.05477 22.9365 8.17193C22.9491 8.45122 22.9596 8.68431 22.968 8.91951L22.9743 9.1232C22.993 9.88883 23.001 10.6547 22.9985 11.4205L22.9995 12.2038V13.5792C23.0021 14.3454 22.9941 15.1116 22.9754 15.8776L22.9691 16.0813C22.9607 16.3165 22.9502 16.5485 22.9376 16.8289C22.8851 17.946 22.7066 18.7083 22.4483 19.3772C22.1855 20.0783 21.7722 20.7133 21.2377 21.2377C20.7127 21.7714 20.0779 22.1845 19.3772 22.4483C18.7084 22.7076 17.9461 22.884 16.829 22.9365C16.5487 22.9491 16.3166 22.9596 16.0814 22.968L15.8777 22.9743C15.1118 22.993 14.3456 23.001 13.5794 22.9985L12.7962 22.9995H11.4218C10.6556 23.0021 9.8894 22.9941 9.12344 22.9754L8.91975 22.9691C8.6705 22.96 8.42131 22.9495 8.17219 22.9376C7.05505 22.8851 6.29279 22.7066 5.62292 22.4483C4.92227 22.1851 4.28764 21.7719 3.76347 21.2377C3.22909 20.713 2.8156 20.0781 2.55183 19.3772C2.29249 18.7083 2.1161 17.946 2.0636 16.8289C2.05191 16.5797 2.04141 16.3306 2.0321 16.0813L2.02685 15.8776C2.0075 15.1117 1.99875 14.3455 2.00061 13.5792V11.4205C1.99768 10.6547 2.00538 9.88883 2.0237 9.1232L2.03105 8.91951C2.03945 8.68431 2.04995 8.45122 2.06255 8.17193C2.11505 7.05372 2.29144 6.2925 2.55078 5.62262C2.81471 4.92189 3.22901 4.28753 3.76452 3.76418C4.28833 3.22949 4.92257 2.81562 5.62292 2.55147C6.29279 2.29213 7.054 2.11574 8.17219 2.06324L8.91975 2.03174L9.12344 2.02649C9.88904 2.00714 10.6549 1.99839 11.4207 2.00024L13.5794 2.00129ZM12.5001 7.25111C11.8045 7.24128 11.1139 7.36978 10.4684 7.62917C9.82291 7.88856 9.23541 8.27365 8.74005 8.76207C8.24468 9.25049 7.85133 9.83249 7.58284 10.4743C7.31436 11.116 7.1761 11.8047 7.1761 12.5004C7.1761 13.1961 7.31436 13.8848 7.58284 14.5266C7.85133 15.1683 8.24468 15.7503 8.74005 16.2388C9.23541 16.7272 9.82291 17.1123 10.4684 17.3716C11.1139 17.631 11.8045 17.7595 12.5001 17.7497C13.8924 17.7497 15.2277 17.1966 16.2122 16.2121C17.1967 15.2275 17.7498 13.8922 17.7498 12.4999C17.7498 11.1075 17.1967 9.77223 16.2122 8.7877C15.2277 7.80317 13.8924 7.25111 12.5001 7.25111ZM12.5001 9.35104C12.9185 9.34333 13.3342 9.41908 13.723 9.57385C14.1118 9.72863 14.4659 9.95933 14.7646 10.2525C15.0632 10.5456 15.3005 10.8954 15.4624 11.2812C15.6244 11.6671 15.7079 12.0814 15.7079 12.4999C15.708 12.9184 15.6247 13.3327 15.4628 13.7186C15.301 14.1045 15.0639 14.4543 14.7653 14.7476C14.4668 15.0408 14.1128 15.2717 13.724 15.4266C13.3353 15.5815 12.9195 15.6573 12.5011 15.6498C11.6657 15.6498 10.8646 15.3179 10.2738 14.7272C9.68314 14.1365 9.35128 13.3353 9.35128 12.4999C9.35128 11.6645 9.68314 10.8633 10.2738 10.2726C10.8646 9.68185 11.6657 9.34999 12.5011 9.34999L12.5001 9.35104ZM18.0123 5.67617C17.6736 5.68972 17.3532 5.83382 17.1184 6.07827C16.8835 6.32273 16.7523 6.64857 16.7523 6.98757C16.7523 7.32657 16.8835 7.65242 17.1184 7.89687C17.3532 8.14132 17.6736 8.28542 18.0123 8.29898C18.3604 8.29898 18.6942 8.1607 18.9403 7.91457C19.1864 7.66844 19.3247 7.33461 19.3247 6.98652C19.3247 6.63844 19.1864 6.30461 18.9403 6.05848C18.6942 5.81234 18.3604 5.67407 18.0123 5.67407V5.67617Z" fill="white"/>
</svg>
