<svg width="129" height="50" viewBox="0 0 129 50" fill="none" xmlns="http://www.w3.org/2000/svg">
<g clip-path="url(#clip0_87_3612)">
<path d="M25 33.9372C24.8332 34.0087 24.7081 33.9883 24.5934 33.9883C22.55 33.9883 20.4962 33.9883 18.4529 33.9985C18.1714 33.9985 18.015 33.9066 17.8795 33.6716C15.2314 29.3612 12.573 25.0509 9.93536 20.7303C9.71643 20.383 9.50792 20.2298 9.08048 20.2502C8.16305 20.2808 7.25605 20.2604 6.33862 20.2604C5.85905 20.2604 5.9216 20.2196 5.9216 20.6588C5.9216 22.7016 5.9216 24.7444 5.9216 26.7975C5.9216 29.0037 5.9216 31.21 5.9216 33.4163C5.9216 33.498 5.9216 33.5797 5.9216 33.6614C5.9216 34.0087 5.94245 33.9985 5.59841 33.9985C5.23353 33.9985 4.85821 33.9985 4.49333 33.9985C3.13803 33.9985 1.79316 33.9985 0.437865 33.9985C-0.0521268 33.9985 0.0208507 34.0496 0.0104254 33.5593C0.0104254 33.5286 0.0104254 33.5082 0.0104254 33.4776C0 22.814 0 12.1606 0 1.50717C0 1.00667 0 1.00667 0.521268 1.00667C4.55588 1.00667 8.60092 0.986242 12.6355 1.01688C14.8144 1.03731 16.8786 1.55824 18.7344 2.71244C21.1218 4.20371 22.4666 6.3589 22.8524 9.0963C23.1026 10.9042 22.9566 12.6713 22.2686 14.377C21.3199 16.7263 19.5788 18.3197 17.2227 19.2901C16.764 19.4841 16.2844 19.6271 15.7944 19.811C18.8595 24.5197 21.9245 29.208 25 33.9372ZM5.91118 10.6386C5.91118 11.8848 5.91118 13.1207 5.91118 14.3668C5.91118 14.7141 5.85905 14.7345 6.25521 14.7345C8.15263 14.7345 10.05 14.7345 11.9475 14.7345C12.5 14.7345 13.0421 14.6835 13.5738 14.5609C15.148 14.2034 16.618 13.2841 16.8474 11.1391C17.0455 9.19845 16.2323 7.46203 13.9491 6.79811C13.3445 6.62447 12.7294 6.53254 12.0934 6.53254C10.1439 6.53254 8.19433 6.53254 6.23436 6.53254C5.9216 6.53254 5.91118 6.54276 5.91118 6.86961C5.91118 8.12596 5.91118 9.3823 5.91118 10.6386Z" fill="white"/>
<path d="M114.353 12.6237C114.353 12.3843 114.353 12.2386 114.353 12.0929C114.353 8.21117 114.353 4.3294 114.353 0.447635C114.353 -0.020675 114.27 0.0001387 114.823 0.0001387C116.398 0.0001387 117.963 0.0001387 119.539 0.0001387C119.632 0.0001387 119.726 0.0001387 119.82 0.0001387C119.935 0.0001387 119.998 0.0417662 119.998 0.166649C119.998 0.260311 119.998 0.353973 119.998 0.447635C119.998 11.6558 119.998 22.8745 119.998 34.0827C119.998 34.603 120.06 34.5302 119.539 34.5302C117.963 34.5302 116.398 34.5302 114.823 34.5302C114.28 34.5302 114.353 34.5926 114.353 34.0411C114.353 33.2918 114.353 32.5425 114.353 31.7724C114.176 31.7932 114.092 31.9285 113.998 32.0221C112.778 33.1669 111.39 34.0411 109.783 34.5198C105.067 35.9247 99.6106 34.2596 96.804 29.358C95.8963 27.7761 95.3746 26.0694 95.1451 24.269C94.8321 21.8234 95.0095 19.4298 95.8337 17.0986C96.8458 14.2263 98.6195 11.9785 101.363 10.5423C103.419 9.4704 105.62 9.13738 107.916 9.39756C110.284 9.65773 112.287 10.6776 114.009 12.2907C114.092 12.3843 114.186 12.4572 114.353 12.6237ZM114.447 22.0627C114.468 20.9492 114.259 19.7732 113.758 18.6597C112.684 16.2661 110.858 14.8091 108.218 14.601C105.485 14.3825 103.356 15.496 101.937 17.8479C100.435 20.3456 100.456 23.9256 101.927 26.444C104.473 30.8149 110.712 30.8566 113.31 26.5273C114.124 25.1848 114.457 23.7174 114.447 22.0627Z" fill="white"/>
<path d="M61.7006 12.2133C62.024 11.9348 62.3162 11.6665 62.6187 11.4189C64.7158 9.69593 67.1363 8.93245 69.8489 9.00467C74.429 9.12848 78.3832 11.8935 80.0942 16.4744C80.8767 18.5688 81.1167 20.7354 80.9498 22.9639C80.7933 25.048 80.2716 27.0289 79.2074 28.8551C77.4755 31.8161 74.9298 33.6938 71.5078 34.2819C67.9083 34.901 64.7158 34.0137 62.024 31.5272C61.9301 31.4344 61.8258 31.3415 61.7319 31.259C61.711 31.2693 61.6902 31.2693 61.6797 31.2796C61.6693 31.2899 61.6589 31.3002 61.6589 31.3106C61.6589 31.3415 61.6484 31.3621 61.6484 31.3931C61.6484 35.2414 61.638 39.0898 61.638 42.9381C61.638 42.9484 61.6276 42.969 61.6171 43C59.7601 43 57.8925 43 56.0354 43C55.9833 42.8452 56.0041 42.7008 56.0041 42.546C56.0041 31.6923 56.0041 20.8386 56.0041 9.98481C56.0041 9.93322 56.0041 9.88164 56.0041 9.81973C56.0041 9.46895 56.0041 9.46895 56.3588 9.46895C57.9969 9.46895 59.6349 9.46895 61.2729 9.46895C61.638 9.46895 61.6484 9.46895 61.6484 9.85069C61.6484 10.511 61.6484 11.1713 61.6484 11.8316C61.6484 11.9348 61.6171 12.0586 61.7006 12.2133ZM68.3257 29.2574C68.6699 29.2368 69.0142 29.2265 69.3481 29.1749C71.5912 28.8138 73.2605 27.617 74.2621 25.6154C75.5037 23.1083 75.5245 20.5187 74.3351 17.991C73.271 15.7418 71.4347 14.4212 68.9099 14.2355C66.0512 14.0292 63.8394 15.2157 62.504 17.7331C61.1477 20.3124 61.1477 22.9949 62.4414 25.6051C63.6203 27.9678 65.6548 29.1543 68.3257 29.2574Z" fill="white"/>
<path d="M50.4578 26.5654C50.3555 26.7982 50.2736 26.9904 50.1918 27.1827C49.4654 28.7613 48.514 30.1881 47.1841 31.3519C45.7518 32.6067 44.0843 33.3555 42.2223 33.7097C40.0944 34.1144 37.9563 34.1245 35.8591 33.5579C31.8078 32.465 29.0763 29.9453 27.7668 25.9988C26.6108 22.5076 26.7438 19.0164 28.2886 15.6568C29.905 12.1454 32.6774 9.95966 36.5138 9.24119C39.8796 8.6138 43.0408 9.1906 45.8541 11.2043C47.8184 12.621 49.1176 14.5336 49.9463 16.77C50.4885 18.2271 50.7852 19.745 50.9182 21.2933C50.9693 21.8498 50.9898 22.4064 51 22.963C51 23.2665 51 23.2665 50.7033 23.2767C50.6215 23.2767 50.5396 23.2767 50.4578 23.2767C44.8106 23.2767 39.1532 23.2767 33.5061 23.2767C33.3629 23.2767 33.2196 23.2767 33.0662 23.2767C33.0355 23.6916 33.1378 24.0457 33.2299 24.3999C33.6698 26.1202 34.5905 27.5166 36.1864 28.3667C38.0586 29.3584 39.9921 29.4191 41.9461 28.5994C43.1329 28.0934 43.9922 27.2131 44.5549 26.0696C44.6572 25.8672 44.7492 25.7964 44.9743 25.8267C46.7851 26.0696 48.5856 26.3125 50.4578 26.5654ZM33.015 19.0367C33.7311 19.1176 44.5651 19.0873 44.8515 19.0063C44.2889 16.0515 41.7722 13.8758 38.9179 13.886C35.767 13.9062 33.4958 16.3854 33.015 19.0367Z" fill="white"/>
<path d="M85.0012 22.5157C85.0012 18.5089 85.0012 14.5021 85.0012 10.5058C85.0012 10.4111 85.0012 10.3165 85.0012 10.2218C84.9901 10.0641 85.0566 9.99047 85.234 10.001C85.478 10.0115 85.7219 10.001 85.977 10.001C87.5293 10.001 89.0817 10.001 90.6341 10.001C90.9889 10.001 91 10.001 91 10.3375C91 11.3576 91 12.3777 91 13.3873C91 20.3914 91 27.3954 91 34.3994C91 34.4941 91 34.5887 91 34.6834C90.9889 34.9884 90.9889 34.9989 90.6674 34.9989C88.9154 34.9989 87.1523 34.9989 85.4004 34.9989C84.9901 34.9989 85.0123 35.0409 85.0123 34.6098C85.0123 31.276 85.0123 27.9528 85.0123 24.619C85.0012 23.9144 85.0012 23.2203 85.0012 22.5157Z" fill="white"/>
<path d="M87.5097 7C85.5264 7 83.9903 5.47912 84 3.50002C84 1.55017 85.5459 0.00979469 87.4903 4.54505e-05C89.4541 -0.00970379 91.0097 1.55017 91 3.51952C90.9902 5.47912 89.4736 7 87.5097 7Z" fill="white"/>
<path d="M89.8431 46.402C89.6986 46.4119 89.6504 46.5106 89.583 46.5797C88.4655 47.6751 86.0957 47.4876 85.3058 45.5829C84.853 44.4777 84.8915 43.3625 85.4984 42.3066C86.3751 40.777 88.533 40.6092 89.6023 41.7046C89.6601 41.7638 89.7082 41.8526 89.8431 41.8526C89.9009 41.6849 89.872 41.5072 89.872 41.3395C89.872 41.1717 89.9394 41.1026 90.0936 41.1125C90.3344 41.1224 90.5752 41.1125 90.8161 41.1125C90.9413 41.1125 91.0087 41.1618 90.9991 41.3C90.9991 41.3691 90.9991 41.4283 90.9991 41.4974C90.9991 43.2244 90.9991 44.9612 90.9991 46.6882C90.9991 47.0731 90.9509 47.458 90.8546 47.833C90.5367 49.0369 89.7853 49.7672 88.5715 49.9547C87.743 50.083 86.9627 49.9449 86.2595 49.4613C85.7489 49.106 85.4214 48.6126 85.2094 48.0303C85.1613 47.8823 85.1902 47.8034 85.3443 47.7935C85.4792 47.7738 85.6237 47.7639 85.7585 47.7442C85.9223 47.7244 86.0861 47.6652 86.2402 47.6948C86.4232 47.7244 86.4136 47.9613 86.4907 48.0896C86.6256 48.2968 86.7701 48.4843 86.9724 48.6225C88.0995 49.4218 89.5541 48.81 89.8046 47.4284C89.8624 47.083 89.872 46.7474 89.8431 46.402ZM88.0128 42.0796C87.271 42.0796 86.6834 42.4743 86.3751 43.175C86.1728 43.6388 86.1343 44.1125 86.2306 44.606C86.3751 45.356 86.9435 45.9876 87.6274 46.1158C88.4174 46.2737 89.1591 45.9678 89.5445 45.277C89.9683 44.5171 89.978 43.7277 89.5445 42.9579C89.2073 42.3757 88.6871 42.0796 88.0128 42.0796Z" fill="#F48C06"/>
<path d="M82.6003 46.998C82.5457 47.0819 82.5129 47.1762 82.4363 47.2391C81.5615 48.0465 80.2056 48.2353 79.134 47.69C78.292 47.2706 77.9421 46.5785 78.0077 45.6873C78.0624 44.9218 78.5873 44.3241 79.4183 44.041C79.9323 43.8732 80.4571 43.8628 80.982 43.8418C81.4631 43.8208 81.9552 43.8208 82.4363 43.8208C82.6331 43.8208 82.7097 43.7579 82.7097 43.5587C82.7425 42.6464 82.0645 41.9963 81.0476 42.0068C80.3806 42.0173 79.6589 42.2794 79.4621 43.0239C79.4293 43.1497 79.3527 43.2022 79.2215 43.2022C78.9263 43.2022 78.6201 43.2022 78.3248 43.2022C78.1499 43.2022 78.0952 43.1183 78.128 42.9715C78.2264 42.4052 78.4889 41.9334 78.97 41.5874C79.9432 40.8743 81.7584 40.8009 82.7972 41.4196C83.6282 41.9124 83.9672 42.6674 83.9781 43.5796C83.9891 44.4814 83.9781 45.3937 83.9781 46.2954C83.9781 46.7253 83.9891 47.1448 84 47.5747C84 47.8578 84 47.8578 83.6938 47.8683C83.497 47.8683 83.2892 47.8578 83.0924 47.8683C82.8409 47.8893 82.7644 47.7739 82.7534 47.5642C82.7425 47.4069 82.7316 47.2391 82.7206 47.0819C82.6769 47.0399 82.6441 47.0189 82.6003 46.998ZM80.654 46.9141C81.7802 46.8617 82.6113 46.2745 82.7097 45.142C82.7425 44.8065 82.7206 44.775 82.3817 44.796C81.7693 44.8169 81.157 44.8589 80.5446 44.8903C80.3259 44.9008 80.1291 44.9638 79.9213 45.0476C79.5386 45.2049 79.3308 45.4775 79.3199 45.8655C79.309 46.2535 79.4949 46.5471 79.8557 46.7358C80.1181 46.8721 80.4025 46.8826 80.654 46.9141Z" fill="#F48C06"/>
<path d="M97.7221 47.0482C97.537 47.0901 97.4826 47.2156 97.3846 47.2889C96.5027 48.0631 95.12 48.2305 94.0749 47.6655C93.2801 47.2365 92.9426 46.5669 93.0079 45.709C93.0732 44.8615 93.5849 44.3383 94.3906 44.0558C94.9241 43.8675 95.4793 43.8675 96.0346 43.8466C96.4918 43.8256 96.9491 43.8256 97.4064 43.8256C97.6132 43.8256 97.6677 43.7629 97.6785 43.5641C97.7439 42.4968 96.8511 41.9319 95.8277 42.026C95.1745 42.0888 94.6519 42.3608 94.4668 43.0305C94.4341 43.156 94.347 43.2083 94.2164 43.2083C93.9333 43.2083 93.6503 43.2188 93.3672 43.2083C93.1277 43.1979 93.095 43.1665 93.1386 42.9258C93.2474 42.3504 93.5305 41.8795 94.0422 41.5343C94.3471 41.325 94.6846 41.189 95.0547 41.1053C95.6753 40.9797 96.2959 40.9588 96.9164 41.0844C98.1358 41.3355 98.9197 42.2457 98.9415 43.449C98.9524 44.5999 98.9523 45.7508 98.9523 46.9017C98.9523 47.1528 98.9523 47.3935 98.9959 47.6341C99.0177 47.7702 98.9523 47.8329 98.8108 47.8329C98.5277 47.8329 98.2447 47.8329 97.9616 47.8329C97.8092 47.8329 97.7656 47.7597 97.7548 47.6237C97.7439 47.4667 97.733 47.2679 97.7221 47.0482ZM96.8729 44.8091C96.3068 44.8615 95.6862 44.8301 95.0983 44.987C94.5757 45.1335 94.3144 45.4788 94.3362 45.9391C94.3579 46.389 94.6737 46.7343 95.1745 46.8494C95.5338 46.9331 95.8821 46.9122 96.2305 46.839C96.9709 46.682 97.5697 46.0752 97.6677 45.3846C97.7547 44.7987 97.733 44.7778 97.1342 44.7987C97.058 44.8092 96.9818 44.8091 96.8729 44.8091Z" fill="#F48C06"/>
<path d="M117.54 46.0519C117.872 45.2303 118.204 44.429 118.535 43.6176C118.856 42.8366 119.177 42.0556 119.486 41.2746C119.564 41.092 119.652 40.9906 119.885 41.0007C120.238 41.021 120.603 41.0007 120.946 41.0007C121.057 41.1224 120.968 41.2036 120.935 41.2847C119.697 44.0841 118.447 46.8836 117.22 49.683C117.12 49.9163 116.998 50.0178 116.711 49.9975C116.368 49.9772 116.025 49.9873 115.694 49.9873C115.605 49.825 115.705 49.7236 115.749 49.6222C116.025 49.0238 116.313 48.4253 116.611 47.8472C116.733 47.6139 116.744 47.4212 116.634 47.1777C115.782 45.2607 114.953 43.3437 114.112 41.4267C113.924 41.0007 113.935 41.0007 114.433 41.0007C114.654 41.0007 114.864 41.0007 115.085 41.0007C115.439 41.0007 115.439 41.0007 115.572 41.3253C116.169 42.8061 116.766 44.287 117.352 45.7679C117.397 45.849 117.419 45.9403 117.54 46.0519Z" fill="#F48C06"/>
<path d="M101.35 41.9289C101.949 41.3423 102.604 41.0224 103.403 41.0011C104.734 40.9691 105.643 41.6623 105.91 42.9101C105.965 43.1873 106.009 43.454 105.998 43.7419C105.998 45.0217 105.998 46.3121 105.998 47.5919C105.998 47.9545 105.998 47.9652 105.621 47.9652C105.488 47.9652 105.355 47.9652 105.233 47.9652C104.656 47.9652 104.712 48.0078 104.712 47.4853C104.712 46.3548 104.712 45.2243 104.712 44.0939C104.712 43.9019 104.712 43.7099 104.678 43.5073C104.545 42.6968 104.19 42.2808 103.569 42.1742C102.759 42.0355 102.016 42.3555 101.628 42.9847C101.406 43.3473 101.317 43.7313 101.328 44.1472C101.328 45.2883 101.328 46.4294 101.328 47.5812C101.328 47.9652 101.328 47.9652 100.918 47.9652C100.64 47.9652 100.297 48.0718 100.119 47.9119C99.9084 47.7306 100.041 47.3893 100.041 47.112C100.03 45.2883 100.041 43.454 100.041 41.6303C100.041 41.5343 100.041 41.4383 100.041 41.3423C100.03 41.1824 100.108 41.1077 100.274 41.1184C100.33 41.1184 100.385 41.1184 100.452 41.1184C100.729 41.1397 101.051 41.0224 101.262 41.1717C101.428 41.3103 101.251 41.6303 101.35 41.9289Z" fill="#F48C06"/>
<path d="M107 44.4655C107 43.4398 107.29 42.5292 108.031 41.807C109.193 40.6872 111.246 40.7395 112.317 41.9222C112.608 42.2466 112.808 42.6339 112.948 43.0525C113.038 43.3247 113.018 43.3561 112.758 43.3979C112.568 43.4293 112.367 43.4607 112.177 43.4817C111.807 43.5235 111.827 43.513 111.706 43.2095C111.596 42.9374 111.446 42.7071 111.226 42.5188C110.455 41.8698 109.263 42.0373 108.672 42.8746C108.061 43.7328 108.041 45.1877 108.632 46.0564C109.043 46.6529 109.614 46.9146 110.305 46.8518C110.975 46.789 111.446 46.4122 111.716 45.7633C111.847 45.4493 111.847 45.4598 112.177 45.5121C112.347 45.5435 112.518 45.554 112.688 45.5854C113.048 45.6482 113.048 45.6586 112.928 45.9936C112.588 46.9565 111.957 47.6054 111.005 47.8775C109.684 48.2543 108.292 47.7414 107.561 46.6215C107.18 46.0145 107 45.3237 107 44.4655Z" fill="#F48C06"/>
<path d="M125.99 6C124.407 6 123.01 4.60328 123 3.01967C123 1.42623 124.416 0 126 0C127.574 0 129.01 1.46557 129 3.03934C128.98 4.61311 127.564 6 125.99 6ZM125.98 5.61639C127.367 5.62623 128.597 4.39672 128.607 3.01967C128.616 1.63279 127.397 0.403279 126.01 0.393443C124.633 0.383607 123.384 1.61311 123.384 2.99016C123.374 4.37705 124.603 5.61639 125.98 5.61639Z" fill="#F48C06"/>
</g>
<defs>
<clipPath id="clip0_87_3612">
<rect width="129" height="50" fill="white"/>
</clipPath>
</defs>
</svg>
