<svg width="109" height="42" viewBox="0 0 109 42" fill="none" xmlns="http://www.w3.org/2000/svg">
<g clip-path="url(#clip0_87_3397)">
<path d="M21 28.9467C20.8599 29.0074 20.7548 28.99 20.6585 28.99C18.942 28.99 17.2168 28.99 15.5004 28.9987C15.264 28.9987 15.1326 28.9207 15.0188 28.7214C12.7944 25.0641 10.5613 21.4068 8.34571 17.7408C8.1618 17.4462 7.98666 17.3162 7.62761 17.3335C6.85696 17.3595 6.09508 17.3422 5.32444 17.3422C4.9216 17.3422 4.97414 17.3075 4.97414 17.6802C4.97414 19.4135 4.97414 21.1468 4.97414 22.8888C4.97414 24.7608 4.97414 26.6327 4.97414 28.5047C4.97414 28.574 4.97414 28.6434 4.97414 28.7127C4.97414 29.0074 4.99166 28.9987 4.70267 28.9987C4.39616 28.9987 4.0809 28.9987 3.7744 28.9987C2.63595 28.9987 1.50626 28.9987 0.367806 28.9987C-0.0437865 28.9987 0.0175146 29.042 0.0087573 28.6261C0.0087573 28.6001 0.0087573 28.5827 0.0087573 28.5567C0 19.5088 0 10.4696 0 1.43032C0 1.00566 0 1.00566 0.437865 1.00566C3.82694 1.00566 7.22477 0.988327 10.6138 1.01433C12.4441 1.03166 14.1781 1.47366 15.7369 2.45298C17.7423 3.7183 18.872 5.54695 19.196 7.86959C19.4062 9.40358 19.2836 10.9029 18.7056 12.3502C17.9087 14.3435 16.4462 15.6955 14.4671 16.5188C14.0817 16.6835 13.6789 16.8048 13.2673 16.9608C15.842 20.9561 18.4166 24.9341 21 28.9467ZM4.96539 9.17825C4.96539 10.2356 4.96539 11.2842 4.96539 12.3415C4.96539 12.6362 4.9216 12.6535 5.25438 12.6535C6.84821 12.6535 8.44204 12.6535 10.0359 12.6535C10.5 12.6535 10.9554 12.6102 11.402 12.5062C12.7244 12.2029 13.9591 11.4229 14.1518 9.60291C14.3182 7.95626 13.6351 6.48294 11.7173 5.91961C11.2093 5.77228 10.6927 5.69428 10.1585 5.69428C8.52085 5.69428 6.88324 5.69428 5.23686 5.69428C4.97415 5.69428 4.96539 5.70295 4.96539 5.98028C4.96539 7.04627 4.96539 8.11226 4.96539 9.17825Z" fill="#282B4C"/>
<path d="M97.2566 10.4596C97.2566 10.2613 97.2566 10.1406 97.2566 10.0199C97.2566 6.80354 97.2566 3.58722 97.2566 0.370897C97.2566 -0.0171307 97.1865 0.000114923 97.651 0.000114923C98.9744 0.000114923 100.289 0.000114923 101.612 0.000114923C101.691 0.000114923 101.77 0.000114923 101.849 0.000114923C101.945 0.000114923 101.998 0.0346063 101.998 0.13808C101.998 0.215686 101.998 0.293292 101.998 0.370897C101.998 9.6577 101.998 18.9531 101.998 28.2399C101.998 28.6711 102.051 28.6107 101.612 28.6107C100.289 28.6107 98.9744 28.6107 97.651 28.6107C97.1953 28.6107 97.2566 28.6625 97.2566 28.2054C97.2566 27.5846 97.2566 26.9638 97.2566 26.3257C97.1077 26.3429 97.0375 26.455 96.9587 26.5326C95.9333 27.4811 94.7676 28.2054 93.418 28.6021C89.4566 29.7662 84.8729 28.3865 82.5154 24.3252C81.7529 23.0145 81.3147 21.6003 81.1219 20.1086C80.859 18.0822 81.008 16.099 81.7003 14.1675C82.5504 11.7875 84.0403 9.92501 86.3453 8.73506C88.0718 7.8469 89.9211 7.57097 91.8492 7.78655C93.8386 8.00212 95.5213 8.84716 96.9674 10.1837C97.0375 10.2613 97.1164 10.3217 97.2566 10.4596ZM97.3355 18.2806C97.353 17.3579 97.1778 16.3835 96.7571 15.4609C95.8544 13.4776 94.3207 12.2704 92.1033 12.098C89.8071 11.9169 88.0193 12.8395 86.8273 14.7883C85.5653 16.8578 85.5828 19.824 86.8186 21.9108C88.957 25.5324 94.198 25.5669 96.3802 21.9798C97.0638 20.8674 97.3443 19.6516 97.3355 18.2806Z" fill="#282B4C"/>
<path d="M51.7885 10.7408C52.0602 10.5032 52.3056 10.2744 52.5597 10.0632C54.3213 8.59358 56.3545 7.94238 58.6331 8.00398C62.4804 8.10958 65.8019 10.468 67.2392 14.3752C67.8964 16.1616 68.098 18.0096 67.9578 19.9104C67.8263 21.688 67.3881 23.3776 66.4942 24.9352C65.0394 27.4608 62.9011 29.0624 60.0265 29.564C57.003 30.092 54.3213 29.3352 52.0602 27.2144C51.9813 27.1352 51.8937 27.056 51.8148 26.9856C51.7973 26.9944 51.7798 26.9944 51.771 27.0032C51.7622 27.012 51.7535 27.0208 51.7535 27.0296C51.7535 27.056 51.7447 27.0736 51.7447 27.1C51.7447 30.3824 51.7359 33.6648 51.7359 36.9472C51.7359 36.956 51.7272 36.9736 51.7184 37C50.1584 37 48.5897 37 47.0298 37C46.9859 36.868 47.0035 36.7448 47.0035 36.6128C47.0035 27.3552 47.0035 18.0976 47.0035 8.83999C47.0035 8.79599 47.0035 8.75198 47.0035 8.69918C47.0035 8.39998 47.0035 8.39998 47.3014 8.39998C48.6774 8.39998 50.0533 8.39998 51.4292 8.39998C51.7359 8.39998 51.7447 8.39998 51.7447 8.72559C51.7447 9.28879 51.7447 9.85199 51.7447 10.4152C51.7447 10.5032 51.7184 10.6088 51.7885 10.7408ZM57.3535 25.2784C57.6428 25.2608 57.932 25.252 58.2124 25.208C60.0966 24.9 61.4988 23.8792 62.3402 22.172C63.3831 20.0336 63.4006 17.8248 62.4015 15.6688C61.5076 13.7504 59.9652 12.624 57.8443 12.4656C55.443 12.2896 53.5851 13.3016 52.4633 15.4488C51.324 17.6488 51.324 19.9368 52.4107 22.1632C53.4011 24.1784 55.11 25.1904 57.3535 25.2784Z" fill="#282B4C"/>
<path d="M43.5256 22.755C43.4361 22.9505 43.3644 23.112 43.2928 23.2735C42.6573 24.5995 41.8248 25.798 40.6611 26.7756C39.4078 27.8296 37.9487 28.4586 36.3196 28.7561C34.4576 29.0961 32.5867 29.1046 30.7517 28.6286C27.2069 27.7106 24.8168 25.594 23.671 22.279C22.6595 19.3464 22.7758 16.4138 24.1275 13.5917C25.5419 10.6422 27.9677 8.80612 31.3246 8.2026C34.2696 7.67559 37.0357 8.1601 39.4974 9.85164C41.2161 11.0417 42.3529 12.6482 43.078 14.5268C43.5524 15.7508 43.812 17.0258 43.9284 18.3264C43.9731 18.7939 43.991 19.2614 44 19.7289C44 19.9839 44 19.9839 43.7404 19.9924C43.6688 19.9924 43.5972 19.9924 43.5256 19.9924C38.5843 19.9924 33.6341 19.9924 28.6928 19.9924C28.5675 19.9924 28.4422 19.9924 28.3079 19.9924C28.281 20.3409 28.3706 20.6384 28.4511 20.9359C28.836 22.381 29.6417 23.554 31.0381 24.268C32.6763 25.101 34.3681 25.152 36.0779 24.4635C37.1162 24.0385 37.8682 23.299 38.3605 22.3385C38.45 22.1684 38.5306 22.1089 38.7275 22.1344C40.312 22.3385 41.8874 22.5425 43.5256 22.755ZM28.2631 16.4308C28.8898 16.4988 38.3695 16.4733 38.6201 16.4053C38.1278 13.9232 35.9257 12.0957 33.4282 12.1042C30.6711 12.1212 28.6839 14.2038 28.2631 16.4308Z" fill="#282B4C"/>
<path d="M72.001 18.5132C72.001 15.1475 72.001 11.7817 72.001 8.42486C72.001 8.34535 72.001 8.26585 72.001 8.18634C71.9917 8.05383 72.0472 7.99199 72.195 8.00083C72.3983 8.00966 72.6016 8.00083 72.8141 8.00083C74.1078 8.00083 75.4014 8.00083 76.6951 8.00083C76.9908 8.00083 77 8.00083 77 8.28351C77 9.1404 77 9.99729 77 10.8454C77 16.7287 77 22.6121 77 28.4955C77 28.575 77 28.6545 77 28.734C76.9908 28.9902 76.9908 28.9991 76.7228 28.9991C75.2628 28.9991 73.7936 28.9991 72.3336 28.9991C71.9917 28.9991 72.0102 29.0344 72.0102 28.6722C72.0102 25.8718 72.0102 23.0803 72.0102 20.28C72.001 19.6881 72.001 19.1051 72.001 18.5132Z" fill="#282B4C"/>
<path d="M74.0083 6C72.3084 6 70.9917 4.69639 71 3.00002C71 1.32872 72.325 0.00839545 73.9917 3.89576e-05C75.675 -0.00831753 77.0083 1.32872 77 3.01673C76.9916 4.69639 75.6916 6 74.0083 6Z" fill="#282B4C"/>
<path d="M76.0359 38.8018C75.9155 38.8106 75.8754 38.8983 75.8192 38.9597C74.8879 39.9334 72.9131 39.7667 72.2548 38.0737C71.8775 37.0913 71.9096 36.1 72.4154 35.1614C73.1459 33.8017 74.9441 33.6526 75.8352 34.6263C75.8834 34.6789 75.9235 34.7579 76.0359 34.7579C76.0841 34.6088 76.06 34.4509 76.06 34.3017C76.06 34.1526 76.1162 34.0912 76.2446 34.1C76.4453 34.1088 76.646 34.1 76.8467 34.1C76.9511 34.1 77.0073 34.1438 76.9992 34.2667C76.9992 34.3281 76.9992 34.3807 76.9992 34.4421C76.9992 35.9772 76.9992 37.5211 76.9992 39.0562C76.9992 39.3983 76.9591 39.7404 76.8788 40.0738C76.6139 41.1439 75.9877 41.7931 74.9762 41.9598C74.2859 42.0738 73.6356 41.951 73.0496 41.5211C72.6241 41.2054 72.3511 40.7667 72.1745 40.2492C72.1344 40.1176 72.1585 40.0474 72.2869 40.0387C72.3993 40.0211 72.5197 40.0124 72.6321 39.9948C72.7686 39.9773 72.9051 39.9246 73.0335 39.9509C73.186 39.9773 73.178 40.1878 73.2422 40.3018C73.3546 40.486 73.475 40.6527 73.6436 40.7755C74.5829 41.4861 75.7951 40.9422 76.0038 39.7141C76.052 39.4071 76.06 39.1088 76.0359 38.8018ZM74.5106 34.9596C73.8925 34.9596 73.4028 35.3105 73.1459 35.9333C72.9773 36.3456 72.9452 36.7667 73.0255 37.2053C73.1459 37.872 73.6195 38.4334 74.1895 38.5474C74.8478 38.6878 75.4659 38.4158 75.787 37.8018C76.1403 37.1263 76.1483 36.4246 75.787 35.7404C75.5061 35.2228 75.0726 34.9596 74.5106 34.9596Z" fill="#F48C06"/>
<path d="M69.8336 39.1411C69.7881 39.213 69.7607 39.2939 69.6969 39.3478C68.9679 40.0399 67.838 40.2017 66.945 39.7343C66.2434 39.3748 65.9518 38.7816 66.0064 38.0177C66.052 37.3615 66.4894 36.8492 67.1819 36.6066C67.6102 36.4628 68.0476 36.4538 68.485 36.4358C68.8859 36.4178 69.296 36.4178 69.6969 36.4178C69.861 36.4178 69.9247 36.3639 69.9247 36.1931C69.9521 35.4112 69.3871 34.854 68.5397 34.863C67.9838 34.8719 67.3824 35.0966 67.2184 35.7348C67.191 35.8426 67.1273 35.8876 67.0179 35.8876C66.7719 35.8876 66.5167 35.8876 66.2707 35.8876C66.1249 35.8876 66.0793 35.8157 66.1067 35.6898C66.1887 35.2045 66.4074 34.8 66.8083 34.5034C67.6193 33.8923 69.132 33.8294 69.9976 34.3596C70.6902 34.7821 70.9727 35.4292 70.9818 36.2111C70.9909 36.9841 70.9818 37.766 70.9818 38.5389C70.9818 38.9074 70.9909 39.2669 71 39.6354C71 39.8781 71 39.8781 70.7449 39.8871C70.5808 39.8871 70.4077 39.8781 70.2437 39.8871C70.0341 39.9051 69.9703 39.8062 69.9612 39.6265C69.9521 39.4916 69.943 39.3478 69.9339 39.213C69.8974 39.1771 69.8701 39.1591 69.8336 39.1411ZM68.2116 39.0692C69.1502 39.0243 69.8427 38.521 69.9247 37.5503C69.9521 37.2627 69.9339 37.2357 69.6514 37.2537C69.1411 37.2717 68.6308 37.3076 68.1205 37.3346C67.9383 37.3436 67.7742 37.3975 67.6011 37.4694C67.2822 37.6042 67.109 37.8379 67.0999 38.1704C67.0908 38.503 67.2457 38.7546 67.5464 38.9164C67.7651 39.0333 68.002 39.0423 68.2116 39.0692Z" fill="#F48C06"/>
<path d="M81.9351 39.1842C81.7808 39.2201 81.7355 39.3277 81.6538 39.3904C80.9189 40.0541 79.7667 40.1976 78.8957 39.7133C78.2334 39.3456 77.9522 38.7716 78.0066 38.0363C78.061 37.3098 78.4875 36.8614 79.1588 36.6193C79.6034 36.4578 80.0661 36.4578 80.5288 36.4399C80.9099 36.422 81.2909 36.422 81.672 36.422C81.8443 36.422 81.8897 36.3682 81.8988 36.1978C81.9532 35.283 81.2093 34.7987 80.3564 34.8794C79.8121 34.9333 79.3766 35.1664 79.2223 35.7404C79.1951 35.848 79.1225 35.8929 79.0137 35.8929C78.7778 35.8929 78.5419 35.9018 78.306 35.8929C78.1064 35.8839 78.0792 35.857 78.1155 35.6507C78.2062 35.1575 78.4421 34.7539 78.8685 34.4579C79.1225 34.2786 79.4038 34.162 79.7123 34.0902C80.2294 33.9826 80.7466 33.9647 81.2637 34.0723C82.2798 34.2875 82.9331 35.0678 82.9512 36.0991C82.9603 37.0856 82.9603 38.0721 82.9603 39.0586C82.9603 39.2739 82.9603 39.4801 82.9966 39.6864C83.0147 39.803 82.9603 39.8568 82.8423 39.8568C82.6065 39.8568 82.3706 39.8568 82.1347 39.8568C82.0077 39.8568 81.9714 39.794 81.9623 39.6774C81.9532 39.5429 81.9441 39.3725 81.9351 39.1842ZM81.2274 37.265C80.7556 37.3098 80.2385 37.2829 79.7486 37.4174C79.3131 37.543 79.0953 37.839 79.1135 38.2336C79.1316 38.6192 79.3947 38.9151 79.8121 39.0138C80.1115 39.0855 80.4018 39.0676 80.6921 39.0048C81.3091 38.8703 81.8081 38.3501 81.8897 37.7582C81.9623 37.256 81.9441 37.2381 81.4451 37.256C81.3816 37.265 81.3181 37.265 81.2274 37.265Z" fill="#F48C06"/>
<path d="M99.0345 38.4906C99.3189 37.7603 99.6032 37.048 99.8876 36.3267C100.162 35.6325 100.437 34.9383 100.703 34.244C100.769 34.0818 100.845 33.9916 101.044 34.0006C101.347 34.0186 101.66 34.0006 101.954 34.0006C102.049 34.1088 101.973 34.1809 101.944 34.2531C100.883 36.7415 99.8117 39.2299 98.7597 41.7183C98.6744 41.9256 98.5701 42.0158 98.3237 41.9978C98.0298 41.9797 97.736 41.9887 97.4517 41.9887C97.3759 41.8445 97.4612 41.7543 97.4991 41.6642C97.736 41.1322 97.9825 40.6003 98.2384 40.0864C98.3426 39.879 98.3521 39.7077 98.2573 39.4913C97.5275 37.7873 96.8166 36.0833 96.0963 34.3793C95.9352 34.0006 95.9447 34.0006 96.3712 34.0006C96.5607 34.0006 96.7408 34.0006 96.9304 34.0006C97.2337 34.0006 97.2337 34.0006 97.3474 34.2891C97.8592 35.6055 98.3711 36.9218 98.8734 38.2381C98.9113 38.3102 98.9303 38.3914 99.0345 38.4906Z" fill="#F48C06"/>
<path d="M85.1253 34.7962C85.6245 34.2934 86.1699 34.0192 86.8355 34.0009C87.9448 33.9735 88.7028 34.5677 88.9246 35.6372C88.9708 35.8749 89.0078 36.1034 88.9986 36.3502C88.9986 37.4472 88.9986 38.5533 88.9986 39.6502C88.9986 39.961 88.9986 39.9702 88.6843 39.9702C88.5734 39.9702 88.4624 39.9702 88.3607 39.9702C87.88 39.9702 87.9263 40.0067 87.9263 39.5588C87.9263 38.5898 87.9263 37.6208 87.9263 36.6519C87.9263 36.4873 87.9263 36.3228 87.8985 36.1491C87.7876 35.4544 87.4918 35.0979 86.9741 35.0064C86.2993 34.8876 85.68 35.1618 85.3564 35.7012C85.1716 36.012 85.0976 36.3411 85.1069 36.6976C85.1069 37.6757 85.1069 38.6538 85.1069 39.6411C85.1069 39.9701 85.1069 39.9702 84.7648 39.9702C84.5337 39.9702 84.2472 40.0616 84.0993 39.9244C83.9236 39.769 84.0346 39.4765 84.0346 39.2389C84.0253 37.6757 84.0346 36.1034 84.0346 34.5402C84.0346 34.458 84.0346 34.3757 84.0346 34.2934C84.0253 34.1563 84.09 34.0923 84.2287 34.1015C84.2749 34.1015 84.3211 34.1015 84.3766 34.1015C84.6077 34.1197 84.8758 34.0192 85.0514 34.1472C85.1901 34.266 85.0421 34.5402 85.1253 34.7962Z" fill="#F48C06"/>
<path d="M90 36.9704C90 36.0912 90.242 35.3108 90.8595 34.6918C91.8275 33.7318 93.5382 33.7767 94.4311 34.7904C94.6731 35.0685 94.84 35.4005 94.9568 35.7593C95.0319 35.9926 95.0152 36.0195 94.7983 36.0554C94.6397 36.0823 94.4728 36.1092 94.3143 36.1271C94.0055 36.163 94.0222 36.154 93.922 35.8939C93.8303 35.6606 93.7051 35.4633 93.5215 35.3018C92.879 34.7456 91.8859 34.8891 91.3936 35.6068C90.8845 36.3424 90.8679 37.5894 91.3602 38.334C91.7023 38.8454 92.178 39.0696 92.7538 39.0158C93.3129 38.962 93.7051 38.639 93.9304 38.0828C94.0389 37.8137 94.0389 37.8227 94.3143 37.8675C94.4561 37.8944 94.598 37.9034 94.7398 37.9303C95.0402 37.9841 95.0402 37.9931 94.9401 38.2802C94.6564 39.1055 94.1307 39.6617 93.3379 39.895C92.2364 40.2179 91.0765 39.7784 90.4673 38.8185C90.1502 38.2981 90 37.706 90 36.9704Z" fill="#F48C06"/>
<path d="M106.492 5C105.172 5 104.008 3.83607 104 2.51639C104 1.18852 105.18 0 106.5 0C107.811 0 109.008 1.22131 109 2.53279C108.984 3.84426 107.803 5 106.492 5ZM106.484 4.68033C107.639 4.68852 108.664 3.66393 108.672 2.51639C108.68 1.36066 107.664 0.336066 106.508 0.327869C105.361 0.319672 104.32 1.34426 104.32 2.4918C104.311 3.64754 105.336 4.68033 106.484 4.68033Z" fill="#F48C06"/>
</g>
<defs>
<clipPath id="clip0_87_3397">
<rect width="109" height="42" fill="white"/>
</clipPath>
</defs>
</svg>
