<svg width="35" height="35" viewBox="0 0 35 35" fill="none" xmlns="http://www.w3.org/2000/svg">
<circle cx="17.5" cy="17.5" r="17.5" fill="white"/>
<path d="M14.716 17.5447C15.2987 18.748 16.2717 19.7185 17.4765 20.2981C17.5654 20.3402 17.6637 20.3584 17.7617 20.351C17.8597 20.3435 17.9542 20.3107 18.0357 20.2557L19.8052 19.0736C19.8834 19.0206 19.9737 18.9882 20.0678 18.9796C20.1618 18.9709 20.2566 18.9862 20.3431 19.0241L23.6557 20.4468C23.7689 20.4939 23.8635 20.5769 23.9249 20.6831C23.9863 20.7892 24.0111 20.9126 23.9954 21.0343C23.8905 21.8537 23.4905 22.6069 22.8703 23.1527C22.2502 23.6986 21.4524 23.9998 20.6263 24C18.0732 24 15.6247 22.9858 13.8195 21.1805C12.0142 19.3753 11 16.9268 11 14.3737C11.0002 13.5476 11.3014 12.7498 11.8473 12.1297C12.3931 11.5095 13.1463 11.1095 13.9657 11.0046C14.0874 10.9889 14.2108 11.0137 14.3169 11.0751C14.4231 11.1365 14.5061 11.2311 14.5532 11.3443L15.9759 14.6639C16.0129 14.7491 16.0284 14.8421 16.021 14.9347C16.0136 15.0273 15.9835 15.1166 15.9335 15.1948L14.7514 16.9927C14.6988 17.074 14.6679 17.1674 14.6617 17.2641C14.6555 17.3607 14.6742 17.4574 14.716 17.5447V17.5447Z" stroke="#1E242C" stroke-linecap="round" stroke-linejoin="round"/>
</svg>
