<svg width="216" height="55" viewBox="0 0 216 55" fill="none" xmlns="http://www.w3.org/2000/svg">
<g clip-path="url(#clip0_234_498)">
<path d="M38.2673 0C40.9713 0.548097 43.6754 1.06298 46.3627 1.6609C47.2808 1.86021 48.1487 2.25882 49 2.70727C41.0882 1.97647 33.3266 2.69066 25.6818 4.53426C20.474 5.77993 15.4331 7.45744 11.2602 10.9952C10.9431 11.2609 10.6259 11.5266 10.3422 11.8256C7.25422 14.9481 7.17076 17.074 10.1252 20.4457C9.42414 21.6083 8.6897 22.8042 7.97196 24C1.67922 21.3093 0.143586 15.5792 4.39995 10.6464C9.02354 5.29827 15.3163 2.85675 22.0263 1.27889C24.2296 0.764014 26.4663 0.415225 28.703 0C31.8744 0 35.0792 0 38.2673 0Z" fill="#CFCFDE"/>
<path d="M62 36.8374C64.4637 36.3299 66.7065 35.8731 68.9493 35.4163C70.5125 40.5762 73.8088 42.3864 78.7192 40.8807C80.3673 40.3732 81.4207 39.3581 81.5567 37.6325C81.6926 35.8562 80.7411 34.6212 79.1269 34.1137C77.122 33.4708 75.0321 33.1325 72.9932 32.608C71.6339 32.2697 70.2576 31.9313 68.9493 31.4407C65.4492 30.0873 63.4952 27.5327 63.4782 23.7601C63.4612 19.9875 65.1943 17.1453 68.6775 15.5889C73.5029 13.4234 78.4133 13.4742 83.1878 15.7242C86.2122 17.1453 88.0642 19.5814 88.7608 23.0326C86.4331 23.5063 84.2412 23.9462 81.9305 24.4199C81.7945 24.0984 81.6246 23.8278 81.5227 23.5232C80.1974 19.8521 75.3549 18.431 72.1097 20.7488C70.2916 22.0514 70.3426 24.5214 72.3815 25.5703C73.7918 26.2977 75.4229 26.5853 76.9691 27.0083C79.1949 27.6342 81.5227 28.0402 83.6635 28.8692C87.1637 30.2226 88.9307 32.8787 88.9987 36.6513C89.0497 40.424 87.5885 43.4353 84.1563 45.0763C78.6172 47.7154 72.9422 47.6309 67.4541 44.8733C64.3617 43.3169 62.5947 40.5762 62 36.8374Z" fill="#CFCFDE"/>
<path d="M148.718 46.2777C148.718 45.1289 148.718 44.1134 148.718 42.3986C146.55 46.0446 143.7 47.2433 140.098 46.9603C135.438 46.594 132.195 43.5473 131.341 38.2864C130.795 34.9401 130.795 31.5605 132.161 28.3307C134.738 22.2207 142.044 20.5226 147.25 24.8179C147.506 25.0176 147.728 25.2341 148.36 25.7835C148.36 22.2041 148.411 19.0742 148.326 15.9443C148.292 14.5624 148.65 13.8965 150.203 14.013C151.74 14.1129 153.293 14.0297 155 14.0297C155 24.8512 155 35.4895 155 46.2943C153.037 46.2777 151.023 46.2777 148.718 46.2777ZM148.872 34.8735C148.599 33.4251 148.496 32.1765 148.138 31.0111C147.489 28.9467 145.407 27.3984 143.427 27.4317C141.173 27.465 139.688 28.6969 138.937 30.6448C137.896 33.3585 137.862 36.1721 138.903 38.9024C139.62 40.7837 141.003 41.9324 143.205 41.9824C145.458 42.0323 147.063 41.0168 147.848 39.0523C148.411 37.6871 148.582 36.1554 148.872 34.8735Z" fill="#CFCFDE"/>
<path d="M115 41.7521C115 43.3063 115 44.7591 115 46.1782C110.523 46.9722 108.886 46.4485 106.865 43.4752C104.493 46.8033 101.118 47.3608 97.4263 46.8202C94.0351 46.3303 91.4459 43.6611 91.0449 40.3161C90.6941 37.4611 92.4148 34.4202 95.5887 33.3559C98.1112 32.5113 100.851 32.2916 103.507 31.8693C104.376 31.7342 105.278 31.8524 106.13 31.8524C106.614 28.9636 105.963 27.308 104.259 26.7843C101.669 25.9903 99.9821 27.0377 98.7293 30.332C96.6411 29.9941 94.4862 29.6562 92.2143 29.2846C92.5818 26.8857 93.818 25.2977 95.6221 24.1658C99.5979 21.6656 103.874 21.4122 108.184 22.9833C111.776 24.2841 112.695 27.5108 112.929 30.8895C113.112 33.5925 112.895 36.3292 112.878 39.0491C112.845 41.1946 112.895 41.2284 115 41.7521ZM106.43 35.3663C104.025 35.8562 101.786 36.0758 99.7149 36.8191C98.2782 37.3428 97.5766 38.8464 98.1446 40.4682C98.7293 42.1575 100.116 42.6981 101.803 42.4616C104.877 42.0393 106.313 40.0627 106.43 35.3663Z" fill="#CFCFDE"/>
<path d="M159 34.5425C159 26.9627 163.78 21.9662 171.017 22.0002C178.087 22.0172 183 27.1327 183 34.4575C183 41.9013 178.071 47.0338 170.9 46.9998C163.763 46.9658 159.017 42.0033 159 34.5425ZM176.394 34.4915C175.896 32.758 175.664 30.9735 174.917 29.461C173.224 26.062 168.892 25.926 167.1 29.257C165.274 32.656 165.274 36.327 167.083 39.726C168.842 43.04 173.224 42.921 174.9 39.539C175.664 38.0435 175.896 36.259 176.394 34.4915Z" fill="#CFCFDE"/>
<path d="M1 54.687C3.88722 54.0443 6.77443 53.4186 9.66165 52.7252C17.1818 50.9324 24.6517 48.9198 31.6179 45.4528C33.4644 44.5395 35.2437 43.3387 36.788 41.9519C38.7688 40.1761 38.6681 38.062 36.5698 36.4046C35.0087 35.17 33.179 34.2736 31.2822 33.1066C32.3901 31.6014 33.498 30.0286 34.7066 28.5403C34.9751 28.202 35.7305 27.8976 36.0998 28.0329C39.776 29.369 43.4186 30.8065 46.1883 33.7493C48.4712 36.1847 48.6055 38.8062 46.5408 41.4953C43.8046 45.0638 39.8935 46.9411 35.932 48.7169C26.1288 53.1649 10.5177 55.9724 1 54.687Z" fill="#CFCFDE"/>
<path d="M59 7.63179C46.3609 12.2923 38.2034 21.5625 30.7844 31.7309C29.2234 33.8662 27.4106 35.8491 25.4636 37.6116C22.2576 40.5265 18.246 41.4586 14.2512 40.7977C16.8529 39.4927 20.042 38.3912 22.6101 36.4931C25.2454 34.5272 27.2931 31.7648 29.5927 29.3582C29.492 29.121 29.3913 28.8837 29.2906 28.6465C27.2428 28.9007 25.195 29.1718 23.1472 29.426C23.0801 29.2566 23.0297 29.104 22.9626 28.9346C25.3125 28.1889 27.6792 27.494 29.9955 26.6806C30.9019 26.3586 31.909 25.9349 32.5301 25.24C34.5107 23.02 36.3403 20.6473 38.5894 17.9019C36.8942 18.0035 35.6521 18.0883 34.41 18.173C34.3596 18.0544 34.3261 17.9527 34.2757 17.8341C35.6017 17.3087 36.8942 16.5461 38.2537 16.2919C40.184 15.936 41.6275 14.953 43.1885 13.8515C46.5623 11.4619 50.1543 9.37736 53.8974 7.00474C51.3628 6.58106 48.8283 6.03874 46.2434 5.75064C43.1214 5.39474 41.9632 8.41137 39.5294 10.1061C40.1672 8.56389 40.654 7.37758 41.1911 6.12348C35.7192 5.85232 31.7915 7.68263 30.8012 13.8006C30.6334 13.665 30.4655 13.5464 30.2809 13.4108C30.3984 11.8686 30.5159 10.3434 30.6334 8.80116C24.5236 10.2925 20.3609 14.2243 18.7664 20.3592C18.4474 19.0882 18.2125 18.19 17.7928 16.5461C16.7522 18.6475 15.7786 20.2067 15.1744 21.9014C14.5701 23.5792 14.3351 25.3926 13.6301 27.1381C13.5462 25.7485 13.4791 24.3588 13.3616 22.4437C9.90388 27.2229 7.78897 31.9851 7.45327 37.9166C6.51331 35.0187 7.10078 30.4937 8.61143 26.7992C10.8271 21.41 14.3687 17.0884 18.951 13.5972C27.2596 7.2759 36.5081 3.68307 47.0659 4.02201C51.1614 4.15759 55.0052 5.24222 59 7.63179Z" fill="#CFCFDE"/>
<path d="M188.922 27.489C187.824 27.4217 186.996 27.3712 186 27.3039C186 25.7894 186 24.3085 186 22.5584C186.794 22.4911 187.672 22.4238 188.702 22.3396C189.327 19.5966 187.925 15.7935 191.235 14.3631C193.785 13.2524 196.91 13.4207 199.983 13C199.983 14.9857 199.983 16.4161 199.983 17.897C198.649 18.1494 197.011 18.0821 195.981 18.8225C195.356 19.2769 195.643 20.9765 195.491 22.306C197.146 22.4069 198.497 22.4742 200 22.5584C200 24.1402 200 25.6379 200 27.2703C198.581 27.3376 197.23 27.4049 195.66 27.489C195.66 33.6986 195.66 39.7736 195.66 46C193.38 46 191.303 46 188.938 46C188.922 39.8746 188.922 33.7323 188.922 27.489Z" fill="#CFCFDE"/>
<path d="M216 13C216 15.0667 216 16.4949 216 17.9231C212.146 18.8472 212.146 18.8472 212.587 22.3926C213.665 22.4598 214.775 22.527 216 22.611C216 24.2072 216 25.6858 216 27.3325C214.906 27.3829 213.844 27.4501 212.521 27.5005C212.521 33.6166 212.521 39.7495 212.521 46C210.268 46 208.259 46 206.021 46C206.021 39.9343 206.021 33.8182 206.021 27.5677C204.894 27.4501 203.98 27.3661 203 27.2653C203 25.6858 203 24.2072 203 22.611C203.996 22.527 204.845 22.4598 205.809 22.3926C206.25 19.7042 204.943 16.1253 207.851 14.6298C210.17 13.4369 213.126 13.5209 216 13Z" fill="#CFCFDE"/>
<path d="M127 23.0447C127 31.1553 127 39.0263 127 47C124.738 47 122.565 47 120.232 47C120.161 46.5551 120.036 46.0931 120.036 45.614C120.018 38.7012 120.054 31.7884 120.001 24.8756C119.983 23.5581 120.321 22.9079 121.835 23.0105C123.509 23.1303 125.201 23.0447 127 23.0447Z" fill="#CFCFDE"/>
<path d="M0 53C6.92382 41.3594 12.4934 28.8658 23.5647 20.2524C29.1004 15.9541 35.2285 12.7095 41.6784 10C41.7799 10.1505 41.8984 10.3011 42 10.4516C41.4244 10.8195 40.8827 11.2042 40.2902 11.5387C34.3652 14.867 28.5417 18.3458 23.5647 23.0121C18.0459 28.1968 14.3555 34.6359 10.6651 41.0751C10.208 41.8611 9.76784 42.6305 9.32769 43.4166C7.88876 45.9588 6.77146 48.6682 3.63966 49.9393C2.23458 50.4913 1.20193 51.9463 0 53Z" fill="#CFCFDE"/>
<path d="M123.37 19.9995C120.693 19.9648 119 18.2275 119 15.5174C119 12.7378 120.797 10.9658 123.578 11.0005C126.186 11.0352 128 12.8767 128 15.5C128.017 18.2275 126.152 20.0343 123.37 19.9995Z" fill="#CFCFDE"/>
</g>
<defs>
<clipPath id="clip0_234_498">
<rect width="216" height="55" fill="white"/>
</clipPath>
</defs>
</svg>
