<svg width="25" height="25" viewBox="0 0 25 25" fill="none" xmlns="http://www.w3.org/2000/svg">
<g clip-path="url(#clip0_87_3597)">
<path fill-rule="evenodd" clip-rule="evenodd" d="M20.8248 4.12314C21.083 4.01411 21.3656 3.9765 21.6432 4.01424C21.9208 4.05198 22.1832 4.16368 22.4032 4.33772C22.6232 4.51177 22.7926 4.74178 22.8939 5.00384C22.9952 5.26589 23.0247 5.5504 22.9792 5.82775L20.6095 20.2498C20.3797 21.6409 18.8584 22.4387 17.5868 21.7458C16.5232 21.166 14.9434 20.2728 13.5224 19.3409C12.8119 18.8744 10.6355 17.3805 10.903 16.3175C11.1328 15.4085 14.7898 11.993 16.8794 9.96241C17.6996 9.16462 17.3256 8.7044 16.357 9.43824C13.9508 11.2603 10.0901 14.031 8.81328 14.811C7.68694 15.4987 7.09974 15.6161 6.39761 15.4987C5.11664 15.2848 3.92866 14.9536 2.95905 14.55C1.64882 14.0048 1.71255 12.1975 2.958 11.6712L20.8248 4.12314Z" fill="white"/>
</g>
<defs>
<clipPath id="clip0_87_3597">
<rect width="25" height="25" fill="white"/>
</clipPath>
</defs>
</svg>
