<svg width="25" height="25" viewBox="0 0 25 25" fill="none" xmlns="http://www.w3.org/2000/svg">
<path d="M10.4 15.7143L15.8495 12.5L10.4 9.28571V15.7143ZM22.538 7.325C22.6745 7.82857 22.769 8.50357 22.832 9.36071C22.9055 10.2179 22.937 10.9571 22.937 11.6L23 12.5C23 14.8464 22.832 16.5714 22.538 17.675C22.2755 18.6393 21.6665 19.2607 20.7215 19.5286C20.228 19.6679 19.325 19.7643 17.939 19.8286C16.574 19.9036 15.3245 19.9357 14.1695 19.9357L12.5 20C8.1005 20 5.36 19.8286 4.2785 19.5286C3.3335 19.2607 2.7245 18.6393 2.462 17.675C2.3255 17.1714 2.231 16.4964 2.168 15.6393C2.0945 14.7821 2.063 14.0429 2.063 13.4L2 12.5C2 10.1536 2.168 8.42857 2.462 7.325C2.7245 6.36071 3.3335 5.73929 4.2785 5.47143C4.772 5.33214 5.675 5.23571 7.061 5.17143C8.426 5.09643 9.6755 5.06429 10.8305 5.06429L12.5 5C16.8995 5 19.64 5.17143 20.7215 5.47143C21.6665 5.73929 22.2755 6.36071 22.538 7.325Z" fill="white"/>
</svg>
